<svg width="32" height="32" viewBox="0 0 32 32" fill="none" xmlns="http://www.w3.org/2000/svg">
<g clip-path="url(#clip0_267_177)">
<path d="M17.76 16L12.56 21.2L14.24 22.92L21.16 16L14.24 9.08L12.56 10.8L17.76 16ZM16 32C13.7867 32 11.7067 31.58 9.76 30.74C7.81333 29.9 6.12 28.7533 4.68 27.3C3.24 25.8467 2.1 24.1467 1.26 22.2C0.42 20.2533 0 18.1867 0 16C0 13.7867 0.42 11.7067 1.26 9.76C2.1 7.81333 3.24 6.12 4.68 4.68C6.12 3.24 7.81333 2.1 9.76 1.26C11.7067 0.42 13.7867 0 16 0C18.2133 0 20.2867 0.42 22.22 1.26C24.1533 2.1 25.8467 3.24 27.3 4.68C28.7533 6.12 29.9 7.81333 30.74 9.76C31.58 11.7067 32 13.7867 32 16C32 18.1867 31.58 20.2533 30.74 22.2C29.9 24.1467 28.7533 25.8467 27.3 27.3C25.8467 28.7533 24.1533 29.9 22.22 30.74C20.2867 31.58 18.2133 32 16 32ZM16 29.6C19.76 29.6 22.9667 28.2733 25.62 25.62C28.2733 22.9667 29.6 19.76 29.6 16C29.6 12.2133 28.2733 9 25.62 6.36C22.9667 3.72 19.76 2.4 16 2.4C12.2133 2.4 9 3.72 6.36 6.36C3.72 9 2.4 12.2133 2.4 16C2.4 19.76 3.72 22.9667 6.36 25.62C9 28.2733 12.2133 29.6 16 29.6Z" fill="#FAFAFA"/>
</g>
<defs>
<clipPath id="clip0_267_177">
<rect width="32" height="32" fill="white"/>
</clipPath>
</defs>
</svg>
