<svg width="55" height="32" viewBox="0 0 55 32" fill="none" xmlns="http://www.w3.org/2000/svg">
<g clip-path="url(#clip0_237_131)">
<path d="M17.0042 11.5544C16.5917 11.1926 15.95 11.0343 15.0792 11.0343H13.75L13.7958 16.5515L13.8875 22.0913L15.1708 22.0461C16.1104 22.0461 16.6146 21.8878 17.0729 21.4582C17.6229 20.9155 17.6688 20.6442 17.6688 16.4837C17.6688 12.1649 17.6229 12.0519 17.0042 11.5544ZM0 0V31.9272H55V0H0ZM19.6167 23.4254C18.6083 24.7368 17.1875 25.1665 13.8188 25.1665H10.7938V8.11748H14.0021C17.8292 8.11748 18.9521 8.52449 19.9604 10.1525C20.5792 11.1248 20.625 11.5092 20.6938 15.9636C20.8083 21.006 20.6479 22.1365 19.6167 23.4254ZM31.2813 11.057H25.6208V15.0592H29.1042V17.9534L27.4542 18.0439L25.7354 18.1117V22.1139L28.5313 22.1818L31.2813 22.2722V25.1665H27.6146C24.1083 25.1665 23.9479 25.1438 23.3292 24.4881L22.6417 23.855V16.7098C22.6417 9.88117 22.6646 9.51939 23.2146 8.84105C23.7417 8.14009 23.7875 8.14009 27.5229 8.14009H31.2813V11.0796V11.057ZM42.0063 23.3802C41.6167 24.3524 40.5396 25.1665 39.7146 25.1665C39.3021 25.1665 38.6833 24.8273 38.1792 24.2846C37.4458 23.561 37.1479 22.8601 36.3 19.5814L34.2375 11.9162L33.2063 8.14009H34.9479C35.8646 8.14009 36.6667 8.18532 36.6667 8.25315C36.6667 8.38882 39.325 18.5187 39.5542 19.1744C39.6458 19.5136 40.2875 17.5916 41.2271 13.9738L42.7396 8.27576L44.4354 8.18532C45.3521 8.14009 46.1083 8.18532 46.1083 8.27576C46.1083 8.59232 42.2813 22.7018 41.9833 23.3802H42.0063Z" fill="#FAFAFA"/>
</g>
<defs>
<clipPath id="clip0_237_131">
<rect width="55" height="32" fill="white"/>
</clipPath>
</defs>
</svg>
