<svg width="39" height="32" viewBox="0 0 39 32" fill="none" xmlns="http://www.w3.org/2000/svg">
<path d="M2.925 32C2.145 32 1.4625 31.7 0.8775 31.1C0.2925 30.5 0 29.8 0 29V3C0 2.2 0.2925 1.5 0.8775 0.9C1.4625 0.3 2.145 0 2.925 0H36.075C36.855 0 37.5375 0.3 38.1225 0.9C38.7075 1.5 39 2.2 39 3V29C39 29.8 38.7075 30.5 38.1225 31.1C37.5375 31.7 36.855 32 36.075 32H2.925ZM19.5 16.9L2.925 5.75V29H36.075V5.75L19.5 16.9ZM19.5 13.9L35.88 3H3.16875L19.5 13.9ZM2.925 5.75V3V29V5.75Z" fill="#FAFAFA"/>
</svg>
