<svg width="29" height="32" viewBox="0 0 29 32" fill="none" xmlns="http://www.w3.org/2000/svg">
<path d="M24 32C22.6667 32 21.5333 31.5333 20.6 30.6C19.6667 29.6667 19.2 28.5333 19.2 27.2C19.2 27.0133 19.2133 26.82 19.24 26.62C19.2667 26.42 19.3067 26.24 19.36 26.08L8.08 19.52C7.62667 19.92 7.12 20.2333 6.56 20.46C6 20.6867 5.41333 20.8 4.8 20.8C3.46667 20.8 2.33333 20.3333 1.4 19.4C0.466667 18.4667 0 17.3333 0 16C0 14.6667 0.466667 13.5333 1.4 12.6C2.33333 11.6667 3.46667 11.2 4.8 11.2C5.41333 11.2 6 11.3133 6.56 11.54C7.12 11.7667 7.62667 12.08 8.08 12.48L19.36 5.92C19.3067 5.76 19.2667 5.58 19.24 5.38C19.2133 5.18 19.2 4.98667 19.2 4.8C19.2 3.46667 19.6667 2.33333 20.6 1.4C21.5333 0.466667 22.6667 0 24 0C25.3333 0 26.4667 0.466667 27.4 1.4C28.3333 2.33333 28.8 3.46667 28.8 4.8C28.8 6.13333 28.3333 7.26667 27.4 8.2C26.4667 9.13333 25.3333 9.6 24 9.6C23.3867 9.6 22.8 9.48667 22.24 9.26C21.68 9.03333 21.1733 8.72 20.72 8.32L9.44 14.88C9.49333 15.04 9.53333 15.22 9.56 15.42C9.58667 15.62 9.6 15.8133 9.6 16C9.6 16.1867 9.58667 16.38 9.56 16.58C9.53333 16.78 9.49333 16.96 9.44 17.12L20.72 23.68C21.1733 23.28 21.68 22.9667 22.24 22.74C22.8 22.5133 23.3867 22.4 24 22.4C25.3333 22.4 26.4667 22.8667 27.4 23.8C28.3333 24.7333 28.8 25.8667 28.8 27.2C28.8 28.5333 28.3333 29.6667 27.4 30.6C26.4667 31.5333 25.3333 32 24 32ZM24 6.4C24.4533 6.4 24.8333 6.24667 25.14 5.94C25.4467 5.63333 25.6 5.25333 25.6 4.8C25.6 4.34667 25.4467 3.96667 25.14 3.66C24.8333 3.35333 24.4533 3.2 24 3.2C23.5467 3.2 23.1667 3.35333 22.86 3.66C22.5533 3.96667 22.4 4.34667 22.4 4.8C22.4 5.25333 22.5533 5.63333 22.86 5.94C23.1667 6.24667 23.5467 6.4 24 6.4ZM4.8 17.6C5.25333 17.6 5.63333 17.4467 5.94 17.14C6.24667 16.8333 6.4 16.4533 6.4 16C6.4 15.5467 6.24667 15.1667 5.94 14.86C5.63333 14.5533 5.25333 14.4 4.8 14.4C4.34667 14.4 3.96667 14.5533 3.66 14.86C3.35333 15.1667 3.2 15.5467 3.2 16C3.2 16.4533 3.35333 16.8333 3.66 17.14C3.96667 17.4467 4.34667 17.6 4.8 17.6ZM24 28.8C24.4533 28.8 24.8333 28.6467 25.14 28.34C25.4467 28.0333 25.6 27.6533 25.6 27.2C25.6 26.7467 25.4467 26.3667 25.14 26.06C24.8333 25.7533 24.4533 25.6 24 25.6C23.5467 25.6 23.1667 25.7533 22.86 26.06C22.5533 26.3667 22.4 26.7467 22.4 27.2C22.4 27.6533 22.5533 28.0333 22.86 28.34C23.1667 28.6467 23.5467 28.8 24 28.8Z" fill="#FAFAFA"/>
</svg>
