<svg width="161" height="161" viewBox="0 0 161 161" fill="none" xmlns="http://www.w3.org/2000/svg">
<rect width="161" height="161" rx="24" fill="#2B3A31"/>
<path d="M65.7695 90.4609V54.8125H75.4375V90.4609C75.4375 93.8594 74.6992 96.7773 73.2227 99.2148C71.7461 101.629 69.7305 103.48 67.1758 104.77C64.6211 106.059 61.7383 106.703 58.5273 106.703C55.2227 106.703 52.293 106.152 49.7383 105.051C47.1836 103.926 45.1797 102.215 43.7266 99.918C42.2969 97.6211 41.582 94.7031 41.582 91.1641H51.2852C51.2852 93.0859 51.5781 94.6328 52.1641 95.8047C52.75 96.9766 53.582 97.8203 54.6602 98.3359C55.7617 98.8516 57.0508 99.1094 58.5273 99.1094C59.957 99.1094 61.2109 98.7812 62.2891 98.125C63.3906 97.4453 64.2461 96.4609 64.8555 95.1719C65.4648 93.8828 65.7695 92.3125 65.7695 90.4609ZM105.918 90.4609V54.8125H115.586V90.4609C115.586 93.8594 114.848 96.7773 113.371 99.2148C111.895 101.629 109.879 103.48 107.324 104.77C104.77 106.059 101.887 106.703 98.6758 106.703C95.3711 106.703 92.4414 106.152 89.8867 105.051C87.332 103.926 85.3281 102.215 83.875 99.918C82.4453 97.6211 81.7305 94.7031 81.7305 91.1641H91.4336C91.4336 93.0859 91.7266 94.6328 92.3125 95.8047C92.8984 96.9766 93.7305 97.8203 94.8086 98.3359C95.9102 98.8516 97.1992 99.1094 98.6758 99.1094C100.105 99.1094 101.359 98.7812 102.438 98.125C103.539 97.4453 104.395 96.4609 105.004 95.1719C105.613 93.8828 105.918 92.3125 105.918 90.4609Z" fill="#21AC50"/>
</svg>
