<svg width="37" height="37" viewBox="0 0 37 37" fill="none" xmlns="http://www.w3.org/2000/svg">
<path d="M7.3125 32.75C6.69583 32.75 6.15625 32.5187 5.69375 32.0562C5.23125 31.5937 5 31.0542 5 30.4375V7.3125C5 6.69583 5.23125 6.15625 5.69375 5.69375C6.15625 5.23125 6.69583 5 7.3125 5H16.375V7.3125H7.3125V30.4375H30.4375V21.375H32.75V30.4375C32.75 31.0542 32.5187 31.5937 32.0562 32.0562C31.5937 32.5187 31.0542 32.75 30.4375 32.75H7.3125ZM15.0979 24.3094L13.4792 22.6521L28.8188 7.3125H20.3781V5H32.75V17.3719H30.4375V8.96979L15.0979 24.3094Z" fill="#227C9D"/>
</svg>
