<svg width="32" height="32" viewBox="0 0 32 32" fill="none" xmlns="http://www.w3.org/2000/svg">
<g clip-path="url(#clip0_296_151)">
<path d="M31.024 7.084C30.5573 3.64667 27.5346 0.937333 23.952 0.412C23.3466 0.322667 21.056 0 15.7506 0H15.7106C10.404 0 9.26396 0.322667 8.65996 0.412C5.17596 0.922667 1.99463 3.35733 1.22263 6.836C0.853296 8.54933 0.813296 10.4493 0.881296 12.1907C0.979962 14.6893 0.998629 17.184 1.22796 19.672C1.3853 21.3253 1.6613 22.9653 2.05463 24.5787C2.78796 27.5613 5.7573 30.0427 8.66796 31.0547C11.7826 32.1107 15.1333 32.2853 18.3426 31.5613C18.696 31.48 19.0453 31.3853 19.3906 31.2773C20.1706 31.032 21.084 30.7573 21.756 30.2733C21.765 30.2666 21.7724 30.258 21.7777 30.2481C21.783 30.2382 21.7861 30.2272 21.7866 30.216V27.804C21.7866 27.7935 21.7842 27.7831 21.7796 27.7736C21.775 27.7641 21.7683 27.7558 21.76 27.7493C21.7515 27.7425 21.7415 27.7378 21.7309 27.7355C21.7202 27.7332 21.7092 27.7333 21.6986 27.736C19.6413 28.2228 17.5341 28.4667 15.42 28.4627C11.78 28.4627 10.8026 26.7507 10.5213 26.0387C10.2962 25.4232 10.1532 24.7808 10.096 24.128C10.0954 24.117 10.0975 24.1059 10.1019 24.0958C10.1064 24.0857 10.1132 24.0768 10.1218 24.0698C10.1304 24.0628 10.1404 24.0579 10.1512 24.0555C10.162 24.0531 10.1732 24.0533 10.184 24.056C12.2066 24.54 14.28 24.784 16.36 24.784C16.8613 24.784 17.36 24.784 17.86 24.7707C19.9533 24.712 22.1586 24.6053 24.2173 24.208C24.268 24.1973 24.32 24.188 24.364 24.176C27.6106 23.5573 30.7013 21.616 31.016 16.704C31.0266 16.5107 31.056 14.6773 31.056 14.4773C31.0586 13.7947 31.2786 9.63733 31.024 7.084ZM26.0266 19.344H22.612V11.0533C22.612 9.308 21.8786 8.41867 20.3853 8.41867C18.7453 8.41867 17.924 9.472 17.924 11.552V16.0893H14.5293V11.5507C14.5293 9.47067 13.7066 8.41733 12.0653 8.41733C10.5826 8.41733 9.8413 9.308 9.83863 11.0533V19.344H6.4293V10.8027C6.4293 9.056 6.87863 7.66933 7.7773 6.64267C8.7053 5.616 9.9213 5.09067 11.4306 5.09067C13.1786 5.09067 14.5 5.75733 15.38 7.088L16.2306 8.50133L17.0813 7.088C17.9613 5.756 19.2813 5.09067 21.028 5.09067C22.5346 5.09067 23.752 5.61733 24.6813 6.64267C25.5813 7.66933 26.0306 9.056 26.0306 10.8027L26.0266 19.344Z" fill="#FAFAFA"/>
</g>
<defs>
<clipPath id="clip0_296_151">
<rect width="32" height="32" fill="white"/>
</clipPath>
</defs>
</svg>
